# xmcd
#
# Track frame offsets:
#	150
#	17287
#	33177
#	49272
#	65480
#	79435
#	95350
#	111812
#	125112
#	138440
#
# Disc length: 2008 seconds
#
# Revision: 0
# Processed by: cddbd v1.4PL0 Copyright (c) Steve Scherf et al.
# Submitted via: EasyCDDAExtractor 4.5.0.2
#
DISCID=8307d60a
DTITLE=Jim Witter - All My Life
DYEAR=1900
DGENRE=Country
TTITLE0=Jumpin' Right In
TTITLE1=Something' Bout A Fire
TTITLE2=One Beat At A Time
TTITLE3=All My Life
TTITLE4=Tough As A Pickup Truck
TTITLE5=One Hundred Years
TTITLE6=If She Were You
TTITLE7=I Want You To Want Me
TTITLE8=Be Like Noah
TTITLE9=Hands Of Time
EXTD=
EXTT0=
EXTT1=
EXTT2=
EXTT3=
EXTT4=
EXTT5=
EXTT6=
EXTT7=
EXTT8=
EXTT9=
PLAYORDER=
